<svg width="56" height="56" viewBox="0 0 56 56" fill="none" xmlns="http://www.w3.org/2000/svg">
<path d="M35 17V10L41.5 17.5L35 17Z" fill="white"/>
<path d="M18 48H38C41.3137 48 44 45.3137 44 42V27.5V17.5C44 17.3389 43.9414 17.1832 43.835 17.0621H36L34.5 15V10C32.9811 8.27012 33.6803 7 31.3782 7H18C14.6863 7 12 9.68629 12 13V42C12 45.3137 14.6863 48 18 48Z" fill="#CCF0F8"/>
<path d="M28.0603 22.2856C26.8661 21.6725 26.1257 22.107 25.8569 22.4641V23.8927H29.8883L29.9385 21.9285C29.9385 21.9285 29.1038 22.8213 28.0603 22.2856Z" fill="#66D2EA"/>
<path d="M29.9572 23.7144H25.8794L26.0356 28.3572C26.0645 29.2144 27.1191 29.9048 27.6428 30.1429C28.7588 30.1429 29.3784 30.1152 29.7856 29.0715L29.9572 23.7144Z" fill="#66D2EA"/>
<path d="M29.4284 28.3571V17.9999H26.5712V28.3571C26.5712 29.1461 27.2108 29.7856 27.9998 29.7856V30.4999C26.8163 30.4999 25.8569 29.5405 25.8569 28.3571V17.2856H30.1426V28.3571L30.1399 28.4673C30.0825 29.5995 29.1463 30.4999 27.9998 30.4999V29.7856C28.7888 29.7856 29.4284 29.1461 29.4284 28.3571Z" fill="#003642"/>
<path d="M30.3216 17.1072V28.3617L30.3188 28.4719V28.4765H30.3184C30.2563 29.7032 29.2422 30.6786 28.0001 30.6786C26.7181 30.6786 25.6787 29.6393 25.6787 28.3572V17.1072H30.3216ZM29.2501 18.1786H26.7501V28.3572C26.7501 29.0475 27.3098 29.6072 28.0001 29.6072C28.6905 29.6072 29.2501 29.0475 29.2501 28.3572V18.1786ZM29.6073 28.3572C29.6073 29.1844 28.9822 29.865 28.1787 29.9539V30.3131C29.1452 30.226 29.9096 29.4391 29.9613 28.4629L29.9644 28.3572V17.4643H26.0359V28.3572C26.0359 29.3818 26.8204 30.2225 27.8216 30.3127V29.9539C27.018 29.865 26.393 29.1844 26.393 28.3572V17.8215H29.6073V28.3572Z" fill="#003642"/>
<path d="M25.6787 16.2143C25.3828 16.2143 25.143 16.4541 25.143 16.75C25.143 17.0459 25.3828 17.2857 25.6787 17.2857H30.3216C30.6174 17.2857 30.8573 17.0459 30.8573 16.75C30.8573 16.4541 30.6174 16.2143 30.3216 16.2143V15.5C31.0119 15.5 31.5716 16.0596 31.5716 16.75C31.5716 17.4404 31.0119 18 30.3216 18H25.6787C24.9884 18 24.4287 17.4404 24.4287 16.75C24.4287 16.0596 24.9884 15.5 25.6787 15.5V16.2143ZM30.3216 15.5V16.2143H25.6787V15.5H30.3216Z" fill="#003642"/>
<path d="M30.6786 16.7501C30.6786 16.5529 30.5187 16.393 30.3214 16.393H25.6786C25.4813 16.393 25.3214 16.5529 25.3214 16.7501C25.3214 16.9473 25.4813 17.1072 25.6786 17.1072H30.3214C30.5187 17.1072 30.6786 16.9473 30.6786 16.7501ZM25.8571 16.0358H30.1429V15.6787H25.8571V16.0358ZM31.0357 16.7501C31.0357 17.1446 30.7159 17.4644 30.3214 17.4644H25.6786C25.2841 17.4644 24.9643 17.1446 24.9643 16.7501C24.9643 16.4174 25.192 16.1386 25.5 16.0592V15.6933C24.9933 15.7783 24.6071 16.2192 24.6071 16.7501C24.6071 17.3418 25.0868 17.8215 25.6786 17.8215H30.3214C30.9132 17.8215 31.3929 17.3418 31.3929 16.7501C31.3929 16.2192 31.0067 15.7783 30.5 15.6933V16.0592C30.808 16.1386 31.0357 16.4174 31.0357 16.7501ZM31.75 16.7501C31.75 17.5391 31.1104 18.1787 30.3214 18.1787H25.6786C24.8896 18.1787 24.25 17.5391 24.25 16.7501C24.25 15.9611 24.8896 15.3215 25.6786 15.3215H30.3214C31.1104 15.3215 31.75 15.9611 31.75 16.7501Z" fill="#003642"/>
<path d="M33.0833 35C33.5896 35 34 35.4477 34 36C34 36.5523 33.5896 37 33.0833 37H23.9167C23.4104 37 23 36.5523 23 36C23 35.4477 23.4104 35 23.9167 35H33.0833Z" fill="#003642"/>
<path d="M33.0833 38C33.5896 38 34 38.4477 34 39C34 39.5523 33.5896 40 33.0833 40H23.9167C23.4104 40 23 39.5523 23 39C23 38.4477 23.4104 38 23.9167 38H33.0833Z" fill="#003642"/>
<path d="M38 46V48H18V46H38ZM12 42V13C12 9.68629 14.6863 7 18 7H31.3779C33.68 7 35.8707 7.9918 37.3896 9.72168L43.835 17.0625C43.9412 17.1836 44 17.3389 44 17.5V42C44 45.3137 41.3137 48 38 48V46C40.2091 46 42 44.2091 42 42V18.5H36.5C34.8431 18.5 33.5 17.1569 33.5 15.5V9.38867C32.8291 9.13498 32.1111 9 31.3779 9H18C15.7909 9 14 10.7909 14 13V42C14 44.2091 15.7909 46 18 46V48C14.6863 48 12 45.3137 12 42ZM35.5 15.5C35.5 16.0523 35.9477 16.5 36.5 16.5H40.6797L35.8867 11.041C35.764 10.9012 35.6339 10.7693 35.5 10.6426V15.5Z" fill="#003642"/>
</svg>
