<svg width="65" height="65" viewBox="0 0 65 65" fill="none" xmlns="http://www.w3.org/2000/svg">
<rect x="0.5" y="0.5" width="63.3124" height="63.3124" rx="19.5" fill="white" stroke="#0A3922"/>
<rect x="12.752" y="19.1328" width="39.9584" height="24.1609" rx="5" fill="white"/>
<path d="M46.207 43.2929V45.1514H19.2583V43.2929H46.207ZM51.7826 37.7173V24.7076C51.7826 21.6282 49.2863 19.132 46.207 19.132H19.2583C16.179 19.132 13.6827 21.6282 13.6827 24.7076V37.7173C13.6827 40.7966 16.179 43.2929 19.2583 43.2929V45.1514L18.8754 45.1414C15.0745 44.9485 12.0271 41.9012 11.8342 38.1002L11.8242 37.7173V24.7076C11.8242 20.6018 15.1526 17.2734 19.2583 17.2734H46.207C50.3128 17.2734 53.6411 20.6018 53.6411 24.7076V37.7173C53.6411 41.6946 50.5178 44.9421 46.59 45.1414L46.207 45.1514V43.2929C49.2863 43.2929 51.7826 40.7966 51.7826 37.7173Z" fill="#0A3922"/>
<path d="M29.4802 27.4959C29.4802 30.062 27.3999 32.1423 24.8338 32.1423C22.2677 32.1423 20.1875 30.062 20.1875 27.4959C20.1875 24.9298 22.2677 22.8496 24.8338 22.8496C27.3999 22.8496 29.4802 24.9298 29.4802 27.4959Z" fill="#77D9AB"/>
<path d="M28.0863 27.4959C28.0863 25.6997 26.6301 24.2435 24.8338 24.2435C23.0376 24.2435 21.5814 25.6997 21.5814 27.4959C21.5814 29.2922 23.0376 30.7484 24.8338 30.7484V32.1423C22.2677 32.1423 20.1875 30.062 20.1875 27.4959C20.1875 24.9298 22.2677 22.8496 24.8338 22.8496C27.3999 22.8496 29.4802 24.9298 29.4802 27.4959C29.4802 30.062 27.3999 32.1423 24.8338 32.1423V30.7484C26.6301 30.7484 28.0863 29.2922 28.0863 27.4959Z" fill="#0A3922"/>
<path d="M17.3984 36.7888V36.0989C17.3984 35.427 17.761 34.8075 18.3468 34.4784L20.1065 33.4901C20.5792 33.2246 21.1443 33.1787 21.6536 33.3645L23.9228 34.1923C24.3342 34.3424 24.7853 34.3424 25.1967 34.1923L27.4105 33.3847C27.9515 33.1874 28.5534 33.2519 29.0402 33.5596L30.4717 34.4641C31.0106 34.8046 31.3374 35.3977 31.3374 36.0352V36.7888C31.3374 37.8153 30.5053 38.6474 29.4789 38.6474H19.257C18.2305 38.6474 17.3984 37.8153 17.3984 36.7888Z" fill="#77D9AB"/>
<path d="M30.6421 36.0354C30.6421 35.6369 30.4381 35.2655 30.1012 35.0526L28.6692 34.1487C28.365 33.9566 27.9891 33.9157 27.651 34.0389L25.4368 34.8466C24.8712 35.0529 24.2509 35.0529 23.6853 34.8466L21.4166 34.019C21.0983 33.9028 20.7447 33.932 20.4492 34.0979L18.6896 35.0862C18.3236 35.2919 18.097 35.6791 18.097 36.0989V36.7886C18.097 37.4301 18.6171 37.9502 19.2586 37.9502H29.4805C30.122 37.9502 30.6421 37.4301 30.6421 36.7886V36.0354ZM32.036 36.7886C32.036 38.2 30.8919 39.3441 29.4805 39.3441H19.2586C17.8473 39.3441 16.7031 38.2 16.7031 36.7886V36.0989C16.7031 35.1751 17.2017 34.3225 18.0072 33.8701L19.7668 32.8819C20.4167 32.5169 21.1937 32.4541 21.8939 32.7095L24.1636 33.5371C24.4206 33.6308 24.7024 33.6309 24.9594 33.5371L27.1728 32.7294C27.9166 32.4581 28.7449 32.547 29.4143 32.9699L30.8454 33.8747C31.5864 34.343 32.036 35.1588 32.036 36.0354V36.7886Z" fill="#0A3922"/>
<path d="M46.2063 34.002C46.7195 34.002 47.1356 34.418 47.1356 34.9312C47.1356 35.4444 46.7195 35.8605 46.2063 35.8605H36.9136C36.4004 35.8605 35.9844 35.4444 35.9844 34.9312C35.9844 34.418 36.4004 34.002 36.9136 34.002H46.2063Z" fill="#0A3922"/>
<path d="M46.2063 36.7891C46.7195 36.7891 47.1356 37.2051 47.1356 37.7183C47.1356 38.2315 46.7195 38.6476 46.2063 38.6476H36.9136C36.4004 38.6476 35.9844 38.2315 35.9844 37.7183C35.9844 37.2051 36.4004 36.7891 36.9136 36.7891H46.2063Z" fill="#0A3922"/>
<rect x="40.6309" y="29.1055" width="1.85853" height="7.43412" rx="0.929265" transform="rotate(-120 40.6309 29.1055)" fill="#FF643B"/>
<rect x="39.7012" y="25.3887" width="1.85853" height="7.43412" rx="0.929265" transform="rotate(-60 39.7012 25.3887)" fill="#FF643B"/>
<rect x="42.4902" y="22.8496" width="1.85853" height="7.43412" rx="0.929265" fill="#FF643B"/>
</svg>
